<svg width="236" height="236" viewBox="0 0 236 236" fill="none" xmlns="http://www.w3.org/2000/svg">
<path d="M39.7353 46.804C45.8075 46.804 50.7486 41.863 50.7486 35.7907C50.7486 29.7184 45.8075 24.7773 39.7353 24.7773C33.663 24.7773 28.7219 29.7184 28.7219 35.7907C28.7219 41.863 33.663 46.804 39.7353 46.804V46.804ZM39.7353 31.0707C42.3383 31.0707 44.4553 33.1876 44.4553 35.7907C44.4553 38.3938 42.3383 40.5107 39.7353 40.5107C37.1322 40.5107 35.0153 38.3938 35.0153 35.7907C35.0153 33.1876 37.133 31.0707 39.7353 31.0707Z" fill="#B6B6B6"/>
<path d="M182.909 89.2848C182.909 95.3571 187.85 100.298 193.922 100.298C199.994 100.298 204.935 95.3571 204.935 89.2848C204.935 83.2125 199.994 78.2715 193.922 78.2715C187.85 78.2715 182.909 83.2125 182.909 89.2848V89.2848ZM193.922 84.5648C196.525 84.5648 198.642 86.6817 198.642 89.2848C198.642 91.8879 196.525 94.0048 193.922 94.0048C191.319 94.0048 189.202 91.8879 189.202 89.2848C189.202 86.6817 191.32 84.5648 193.922 84.5648Z" fill="#B6B6B6"/>
<path d="M206.509 55.0866C208.476 55.0866 210.071 53.4914 210.071 51.5238C210.071 49.5561 208.476 47.9609 206.509 47.9609C204.541 47.9609 202.946 49.5561 202.946 51.5238C202.946 53.4914 204.541 55.0866 206.509 55.0866Z" fill="#B6B6B6"/>
<path d="M55.4687 67.6745C57.4364 67.6745 59.0315 66.0793 59.0315 64.1116C59.0315 62.144 57.4364 60.5488 55.4687 60.5488C53.501 60.5488 51.9059 62.144 51.9059 64.1116C51.9059 66.0793 53.501 67.6745 55.4687 67.6745Z" fill="#B6B6B6"/>
<path d="M171.757 40.6486C172.371 41.263 173.177 41.5706 173.982 41.5706C174.786 41.5706 175.592 41.263 176.206 40.6486L179.762 37.0929L183.318 40.6486C183.932 41.263 184.738 41.5706 185.542 41.5706C186.347 41.5706 187.153 41.263 187.767 40.6486C188.996 39.4198 188.996 37.428 187.767 36.1992L184.211 32.6435L187.767 29.0878C188.996 27.859 188.996 25.8672 187.767 24.6384C186.538 23.4096 184.547 23.4096 183.318 24.6384L179.762 28.1941L176.206 24.6384C174.978 23.4096 172.986 23.4096 171.757 24.6384C170.528 25.8672 170.528 27.859 171.757 29.0878L175.313 32.6435L171.757 36.1992C170.528 37.428 170.528 39.4191 171.757 40.6486V40.6486Z" fill="#B6B6B6"/>
<path d="M27.0102 106.729C27.6246 107.343 28.4301 107.651 29.2349 107.651C30.0397 107.651 30.8452 107.343 31.4596 106.729L35.0153 103.173L38.5711 106.729C39.1854 107.343 39.991 107.651 40.7958 107.651C41.6005 107.651 42.4061 107.343 43.0204 106.729C44.2492 105.5 44.2492 103.508 43.0204 102.279L39.4647 98.7236L43.0204 95.1678C44.2492 93.9391 44.2492 91.9472 43.0204 90.7185C41.7917 89.4897 39.7998 89.4897 38.5711 90.7185L35.0153 94.2742L31.4596 90.7185C30.2308 89.4897 28.239 89.4897 27.0102 90.7185C25.7814 91.9472 25.7814 93.9391 27.0102 95.1678L30.5659 98.7236L27.0102 102.279C25.7814 103.508 25.7814 105.499 27.0102 106.729V106.729Z" fill="#B6B6B6"/>
<path d="M134.135 108.164C135.873 108.164 137.282 106.756 137.282 105.018C137.282 103.28 135.873 101.871 134.135 101.871C132.397 101.871 130.989 103.28 130.989 105.018C130.989 106.756 132.397 108.164 134.135 108.164Z" fill="#B6B6B6"/>
<path d="M102.669 108.164C104.406 108.164 105.815 106.756 105.815 105.018C105.815 103.28 104.406 101.871 102.669 101.871C100.931 101.871 99.522 103.28 99.522 105.018C99.522 106.756 100.931 108.164 102.669 108.164Z" fill="#B6B6B6"/>
<path d="M205.249 155.995C201.258 152.998 200.923 148.159 200.535 142.557C199.93 133.823 199.177 122.958 181.726 120.776C172.833 119.673 164.017 122.521 156.888 128.811C150.963 134.044 146.779 141.182 144.829 148.901L132.563 143.328V140.789C132.563 140.76 132.547 140.736 132.546 140.706C144.589 134.952 153.745 124.231 157.46 111.305C159.552 111.36 161.479 110.797 163.381 109.612C166.301 107.79 168.277 104.827 168.664 101.681C169.054 98.5278 168.077 95.3662 165.991 93.003C164.556 91.3833 162.694 90.2371 160.647 89.6754C160.64 89.1224 160.618 87.1117 160.611 86.9024C160.769 86.5248 160.884 72.8769 160.884 72.8769C161.612 72.7904 162.322 72.6582 162.992 72.4262C165.352 71.612 167.152 69.9403 168.339 67.4607H168.342C172.436 58.9065 165.121 46.7879 151.223 37.4581C152.197 34.9926 152.299 32.3038 151.41 29.7833C150.43 27.0088 148.433 24.7809 145.781 23.5112C143.129 22.2361 140.142 22.0764 137.361 23.0534C134.838 23.9447 132.806 25.7084 131.497 28.0102C115.516 23.0298 101.489 24.9257 97.3893 33.4799C96.4665 35.4072 96.2675 37.4211 96.7151 39.3712C83.2482 45.5285 75.8685 57.1696 75.9251 72.3617L75.9652 77.5576C75.9959 80.4982 76.0738 86.0072 76.132 86.2534C76.1312 86.299 76.1642 88.8998 76.1642 89.6683C74.2715 90.1812 72.5472 91.1984 71.1461 92.649C69.0536 94.8218 67.9593 97.6798 68.0671 100.697C68.1835 104.064 70.0951 107.316 73.1741 109.393C75.1196 110.705 77.0705 111.347 79.1906 111.313C82.482 123.338 90.4635 133.428 101.113 139.555C101.112 139.582 101.098 139.604 101.098 139.63V143.327L76.0195 154.724C64.4933 159.963 57.0443 171.671 57.0443 184.547V210.43C57.0443 212.169 58.4517 213.576 60.191 213.576H173.471C175.21 213.576 176.618 212.169 176.618 210.43V195.942C178.167 196.137 179.736 196.27 181.338 196.27C195.236 196.27 209.974 187.275 213.523 176.63C214.959 172.318 215.795 163.905 205.249 155.995V155.995ZM139.452 28.9912C140.644 28.5734 141.923 28.6466 143.056 29.1847C144.949 30.0933 145.939 32.1016 145.674 34.0746C144.386 33.3658 143.066 32.6759 141.698 32.0206C140.342 31.3716 138.99 30.7793 137.642 30.2247C138.15 29.6905 138.737 29.2421 139.452 28.9912V28.9912ZM103.062 36.197C104.479 33.2439 108.901 31.5258 115.102 31.5258C121.582 31.5258 130.008 33.4004 138.981 37.6964C156.54 46.1098 165.552 58.7028 162.661 64.7444C162.084 65.9519 161.435 66.3051 160.935 66.4806C157.272 67.7345 148.585 63.4354 139.366 58.8877C137.101 57.769 134.726 56.5953 132.243 55.4059C129.805 54.2384 127.39 53.1167 125.049 52.0287C114.886 47.3056 104.383 42.4196 102.893 38.2683C102.647 37.5824 102.696 36.9617 103.062 36.197V36.197ZM99.9129 44.8205C104.327 49.3273 112.566 53.1662 122.394 57.7352C124.717 58.8137 127.11 59.926 129.525 61.0848C131.984 62.2617 134.337 63.4236 136.581 64.5296C143.722 68.057 149.654 70.9779 154.589 72.2673V84.1656C145.173 91.2456 134.525 93.9281 124.462 91.7278C115.439 89.758 107.957 84.0397 103.938 76.0409C103.48 75.1315 102.61 74.4983 101.605 74.3449C100.594 74.182 99.577 74.5289 98.8698 75.2605C94.8106 79.4393 88.8831 81.9504 82.2916 82.3618C82.2884 80.8435 82.2704 79.1907 82.2546 77.497L82.2145 72.3373C82.1555 56.1209 91.6175 48.4431 99.9129 44.8205ZM84.6461 107.089C84.4652 106.207 83.9145 105.445 83.1341 104.993C82.3537 104.545 81.416 104.458 80.5594 104.739C79.3424 105.153 78.2174 105.209 76.6937 104.176C75.2989 103.236 74.4013 101.816 74.3518 100.473C74.3054 99.1768 74.7758 97.9504 75.6734 97.019C76.571 96.0907 77.7753 95.5778 79.0686 95.5778C79.9198 95.5778 80.7678 95.2151 81.361 94.607C82.235 93.7087 82.5048 92.9377 82.4505 88.6433C89.182 88.2657 95.4274 86.0701 100.321 82.3523C105.468 90.2222 113.584 95.7965 123.119 97.8764C125.872 98.479 128.653 98.7772 131.44 98.7772C139.267 98.7748 147.115 96.392 154.421 91.8553C154.541 93.2933 154.828 93.9816 155.464 94.6251C156.054 95.2246 156.893 95.5778 157.735 95.5778C159.088 95.5778 160.378 96.1583 161.272 97.1724C162.182 98.199 162.587 99.5261 162.418 100.912C162.259 102.191 161.374 103.444 160.052 104.271C158.724 105.098 157.6 105.224 156.177 104.723C155.329 104.412 154.386 104.502 153.599 104.938C152.809 105.377 152.247 106.136 152.053 107.018C148.989 121.086 138.591 132.579 124.913 137.01L123.524 137.465C119.612 138.734 115.614 138.78 111.969 137.603C98.0564 133.126 87.5866 121.433 84.6461 107.089V107.089ZM110.04 143.595C112.425 144.364 114.905 144.744 117.422 144.744C120.093 144.744 122.799 144.314 125.467 143.45L126.269 143.188V144.351C126.269 149.556 122.035 153.791 116.829 153.791C111.624 153.791 107.389 149.556 107.389 144.351V142.552C108.274 142.898 109.129 143.302 110.04 143.595V143.595ZM170.322 207.284H151.442V191.551C151.442 189.812 150.035 188.404 148.295 188.404C146.556 188.404 145.149 189.812 145.149 191.551V207.284H85.362V191.551C85.362 189.812 83.9546 188.404 82.2153 188.404C80.476 188.404 79.0686 189.812 79.0686 191.551V207.284H63.3353V184.548C63.3353 174.134 69.3368 164.675 78.6234 160.453L102.118 149.776C104.339 155.774 110.068 160.084 116.829 160.084C123.59 160.084 129.319 155.774 131.539 149.775L143.75 155.324C143.662 156.384 143.575 157.445 143.575 158.511C143.575 175.502 154.858 189.898 170.322 194.623V207.284ZM207.55 174.641C204.874 182.667 192.379 189.978 181.335 189.978C163.985 189.978 149.869 175.861 149.869 158.511C149.869 149.05 154.051 139.711 161.054 133.531C166.008 129.158 171.929 126.835 177.989 126.835C178.972 126.835 179.959 126.897 180.945 127.019C193.258 128.559 193.677 134.612 194.257 142.989C194.687 149.231 195.176 156.305 201.476 161.028C207.108 165.253 209.152 169.835 207.55 174.641V174.641Z" fill="#B6B6B6"/>
<path d="M193.922 161.787C188.787 161.787 184.611 165.964 184.611 171.098C184.611 176.23 188.787 180.406 193.922 180.406C199.057 180.406 203.233 176.23 203.233 171.098C203.233 165.964 199.057 161.787 193.922 161.787V161.787ZM193.922 174.113C192.26 174.113 190.904 172.76 190.904 171.098C190.904 169.436 192.26 168.08 193.922 168.08C195.584 168.08 196.94 169.436 196.94 171.098C196.94 172.76 195.584 174.113 193.922 174.113Z" fill="#B6B6B6"/>
<path d="M175.042 131.395C170.501 131.395 166.806 135.088 166.806 139.63C166.806 144.172 170.5 147.866 175.042 147.866C179.584 147.866 183.278 144.172 183.278 139.63C183.278 135.088 179.584 131.395 175.042 131.395ZM175.042 141.572C173.973 141.572 173.1 140.7 173.1 139.63C173.1 138.56 173.972 137.688 175.042 137.688C176.112 137.688 176.984 138.56 176.984 139.63C176.984 140.7 176.112 141.572 175.042 141.572Z" fill="#B6B6B6"/>
<path d="M169.118 156.937C169.118 152.395 165.424 148.701 160.882 148.701C156.34 148.701 152.646 152.395 152.646 156.937C152.646 161.479 156.34 165.172 160.882 165.172C165.424 165.172 169.118 161.479 169.118 156.937ZM160.882 158.879C159.813 158.879 158.94 158.007 158.94 156.937C158.94 155.867 159.812 154.995 160.882 154.995C161.952 154.995 162.824 155.867 162.824 156.937C162.824 158.007 161.952 158.879 160.882 158.879Z" fill="#B6B6B6"/>
<path d="M171.895 169.156C167.354 169.156 163.66 172.85 163.66 177.392C163.66 181.934 167.353 185.627 171.895 185.627C176.437 185.627 180.131 181.934 180.131 177.392C180.131 172.85 176.437 169.156 171.895 169.156ZM171.895 179.334C170.826 179.334 169.953 178.462 169.953 177.392C169.953 176.322 170.825 175.45 171.895 175.45C172.965 175.45 173.838 176.322 173.838 177.392C173.838 178.462 172.965 179.334 171.895 179.334Z" fill="#B6B6B6"/>
<path d="M48.303 136.132C47.7193 135.555 47.1261 134.968 46.5487 134.362C46.5479 134.361 46.5471 134.361 46.5471 134.36C46.5463 134.36 46.5463 134.36 46.5463 134.359C44.1344 131.836 42.5273 129.537 42.5273 126.529C42.5273 122.531 40.4528 121.434 39.2146 121.137C34.3074 119.895 28.5608 129.526 25.5738 135.348C23.7794 138.848 21.6373 143.747 21.6373 147.21C21.6373 153.316 25.005 158.6 29.9445 161.46L28.1242 201.883C27.9763 205.149 29.1201 208.309 31.2614 210.546C33.1297 212.503 35.5818 213.579 38.1628 213.579C40.7439 213.579 43.1959 212.503 45.0643 210.546C47.2064 208.309 48.3494 205.15 48.2015 201.883L46.3811 161.46C51.3206 158.599 54.6891 153.315 54.6891 147.21C54.6883 142.456 51.2954 139.095 48.303 136.132V136.132ZM36.5643 129.623C37.148 132.257 38.4295 134.448 39.914 136.334C38.8016 137.161 37.7042 137.597 36.632 137.64C35.1877 137.634 33.6206 136.967 32.3423 136.042C33.8661 133.335 35.3631 131.151 36.5643 129.623ZM41.9144 202.166C41.9852 203.723 41.4747 205.196 40.5165 206.197C40.043 206.695 39.2476 207.285 38.1628 207.285C37.078 207.285 36.2819 206.695 35.8091 206.197C34.8502 205.196 34.3404 203.723 34.4112 202.166L36.1505 163.532C36.8176 163.614 37.4737 163.736 38.1628 163.736C38.852 163.736 39.508 163.615 40.1751 163.532L41.9144 202.166ZM38.162 157.443C32.5201 157.443 27.9291 152.852 27.9291 147.21C27.9291 146.318 28.3964 144.421 29.5496 141.687C31.8152 143.137 34.1202 143.937 36.4471 143.937C36.5887 143.937 36.7295 143.933 36.8743 143.927C39.4514 143.828 41.9089 142.816 44.2162 140.942C46.4905 143.201 48.395 145.182 48.395 147.209C48.395 152.852 43.804 157.443 38.162 157.443Z" fill="#B6B6B6"/>
</svg>
